<svg xmlns="http://www.w3.org/2000/svg" viewBox="0 0 500 500"><g id="freepik--Character_1--inject-78"><g><g><path d="M142.66,93.07s-8.32,57.93-7.77,63.44c.56,5.51,7.35,58.9,7.35,58.9,0,0,15.25-3.28,19.66-5.91,3.16-1.89,14.37-11.55,14.37-11.55,0,0-19.08-37.24-20.61-44.79-1.53-7.55-2.61-44.19-4.42-51.56-1.81-7.37-8.76-9.9-8.76-9.9" style="fill:#89FF00;"></path><path d="M142.66,93.07s-8.32,57.93-7.77,63.44c.56,5.51,7.35,58.9,7.35,58.9,0,0,15.25-3.28,19.66-5.91,3.16-1.89,14.37-11.55,14.37-11.55,0,0-19.08-37.24-20.61-44.79-1.53-7.55-2.61-44.19-4.42-51.56-1.81-7.37-8.76-9.9-8.76-9.9" style="fill:#030402; opacity:.2;"></path></g><g><g><g><path d="M71.37,363.09s-25.94,45.87-25.95,45.9c-4.17,9.25-7.65,17.43-9.06,21.84-.01,.02-.02,.04-.02,.07-.53,1.66-.77,2.77-.6,3.16,.01,.03,.01,.06,.03,.08,1.91,3.1,74.86,38.56,77.82,38.94,2.97,.4,4.28-8.03,2.54-11.66-1.76-3.65-23.6-29.7-23.6-29.7l25.47-46.05-46.61-22.57Z" style="fill:#f7a9a0;"></path><path d="M112.41,472.81c-2.96-.38-74.74-35.57-76.65-38.67-.02-.03-.03-.06-.03-.08-.17-.4,.08-1.51,.6-3.16,0-.04,.01-.05,.03-.07,1.41-4.4,4.9-12.59,9.06-21.84,0-.01,4.37-8.02,6.11-10.8l46.4,23.98-5.4,9.54s20.69,25.8,22.43,29.43c1.74,3.64,.43,12.05-2.54,11.67Z" style="fill:#ebebeb;"></path><g><path d="M113.75,471.82c-2.98-.45-75.66-37.89-77.52-41.08-.73-1.2,4.11-12.11,10.34-25.12,.07-.14,.13-.27,.2-.41l47.16,23.63-.43,.79s21.41,26.78,23.09,30.49c1.66,3.7,.14,12.16-2.83,11.69Z" style="fill:#89FF00;"></path><g><path d="M114.38,468.58c-12.1-6.61-61.51-32.14-73.97-37.76-.1-.05-.14,.02-.04,.08,11.85,6.82,61.47,31.94,73.91,37.88,.26,.13,.36-.06,.1-.2Z" style="fill:#fff;"></path><path d="M97.36,431.81c-4.36-3.38-10.64-5.68-16.09-4.14-.21,.06-.12,.36,.06,.39,5.53,.95,10.47,2.28,15.7,4.35,.37,.15,.65-.36,.33-.6Z" style="fill:#263238;"></path><path d="M99.76,435.7c-4.36-3.38-10.64-5.68-16.09-4.14-.21,.06-.12,.36,.06,.39,5.53,.95,10.47,2.28,15.7,4.35,.37,.15,.64-.36,.33-.6Z" style="fill:#263238;"></path><path d="M102.16,439.59c-4.36-3.38-10.64-5.68-16.09-4.14-.21,.06-.12,.36,.06,.39,5.53,.95,10.47,2.28,15.7,4.35,.37,.15,.64-.36,.33-.6Z" style="fill:#263238;"></path></g><path d="M54.57,419.54c-3.91-5.35-12.23,.72-8.31,6.08,3.91,5.35,12.23-.72,8.31-6.08Z" style="fill:#fff;"></path><path d="M96.69,433.65l5.22,32.64c6.58,3.27,11.12,5.43,11.83,5.53,2.97,.46,4.5-8,2.84-11.7-1.27-2.81-13.86-18.86-19.89-26.47Z" style="opacity:.1;"></path><path d="M116.2,469.79c1.04,1.17-1.49,5.4-2.61,5.26-1.12-.13-80.19-41.31-81.38-42.31-1.19-1,1.79-5.57,3.49-5.02,1.69,.56,80.5,42.06,80.5,42.06Z" style="fill:#263238;"></path></g></g><g><path d="M51.42,393.9l52.28,27.91s65.98-94.04,67.3-118.74c1.82-34.12-27.31-142.45-27.31-142.45l-46.47-.32s18.89,111.41,17.36,130.41c-.8,9.94-63.15,103.18-63.15,103.18Z" style="fill:#37474f;"></path><g><path d="M108.26,411.01c-2.69-1.94-27.47-16.3-46.34-25.47-.13-.06-.21,.12-.1,.19,5.72,3.78,42.71,24.04,46.3,25.48,.12,.05,.26-.11,.14-.2Z" style="fill:#263238;"></path><path d="M121.02,266.91c-2.16-16.3-4.53-32.58-7.24-48.8-2.72-16.29-5.59-32.58-9-48.74-.42-1.97-.85-3.94-1.28-5.91-.07-.3-.53-.22-.47,.09,2.86,16.04,5.81,32.06,8.44,48.14,2.63,16.08,5.09,32.18,7.3,48.32,.55,4,1.08,8,1.59,12,.53,4.13,1.14,8.28,1.19,12.45,.05,4.01-.58,7.91-1.99,11.66-1.38,3.69-3.36,7.11-5.35,10.49-8.41,14.22-46.06,76.38-47.04,78.19-.06,.12,.1,.24,.18,.12,9.03-14.02,37.07-58.8,45.59-73.26,3.85-6.52,8.25-13.12,9.51-20.73,1.3-7.91-.38-16.18-1.42-24.03Z" style="fill:#263238;"></path></g></g></g><g><g><path d="M107.63,393.9s-.52,53.02-.52,53.06c.28,10.14,.71,19.03,1.36,23.6,0,.02,0,.05,.01,.07,.24,1.73,.52,2.83,.83,3.11,.02,.02,.04,.05,.06,.06,3.07,1.96,84.18,2.08,87.01,1.13,2.84-.94,.35-9.09-2.79-11.6-3.17-2.52-34.19-16.45-34.19-16.45l.02-52.98h-51.79Z" style="fill:#f7a9a0;"></path><path d="M107.22,436.07s-.11,10.85-.11,10.89c.28,10.14,.71,19.03,1.36,23.6,0,.02,0,.05,.01,.07,.34,1.7,.64,2.83,.83,3.11,.02,.02,.04,.05,.06,.06,3.07,1.96,84.18,2.08,87.01,1.13,2.84-.94,.35-9.09-2.79-11.6-3.17-2.52-34.19-16.45-34.19-16.45v-11.05l-52.19,.24Z" style="fill:#ebebeb;"></path><g><path d="M196.42,474.84c-2.87,.91-84.62-.53-87.69-2.56-1.18-.75-1.67-12.68-1.84-27.1,0-.15,0-.3,0-.45l52.75,.34-.04,.89s31.04,14.55,34.19,17.14c3.12,2.58,5.5,10.84,2.63,11.74Z" style="fill:#89FF00;"></path><g><path d="M195.55,471.66c-13.77-.58-69.38-1.62-83.04-1.15-.11,0-.11,.08,0,.09,13.64,.87,69.26,1.47,83.04,1.29,.29,0,.29-.21,0-.23Z" style="fill:#fff;"></path><path d="M164.03,446.2c-5.4-1.11-12.05-.39-16.26,3.4-.16,.15,.05,.38,.22,.32,5.38-1.59,10.39-2.59,16.01-3.04,.4-.03,.42-.61,.03-.68Z" style="fill:#263238;"></path><path d="M167.9,448.63c-5.4-1.11-12.05-.39-16.26,3.4-.16,.15,.05,.38,.22,.32,5.38-1.59,10.39-2.59,16.01-3.04,.4-.03,.42-.6,.03-.68Z" style="fill:#263238;"></path><path d="M171.78,451.06c-5.4-1.11-12.05-.39-16.26,3.4-.16,.15,.05,.38,.22,.32,5.38-1.59,10.39-2.59,16-3.04,.4-.03,.42-.61,.03-.68Z" style="fill:#263238;"></path></g><path d="M197.72,471.93c1.45,.59,1.05,5.5-.01,5.87-1.06,.38-90.19-1.59-91.7-1.95-1.51-.37-.86-5.79,.91-6.04,1.76-.25,90.8,2.12,90.8,2.12Z" style="fill:#263238;"></path><path d="M120.23,454.12c-5.87-3.07-10.65,6.06-4.77,9.13,5.87,3.07,10.65-6.06,4.77-9.13Z" style="fill:#fff;"></path></g></g><g><path d="M143.1,160.52s0,.01-.02,.05c-.31,.96-17.01,46.72-18.58,47.45-1.78,.82,36.89,65.79,39.18,95.97,1.46,19.3-1.41,128.54-1.41,128.54h-56.54s2.72-98.21,4.01-129.33c.5-12.07-38.82-72.14-39.3-109.56-.15-11.79,8.32-33.34,8.32-33.34l64.34,.21Z" style="fill:#37474f;"></path><g><path d="M110.07,302.36c0-.5-.39-.66-.43-.15-1.28,16.84-1.57,33.59-2.38,50.46-.8,16.82-.35,20.87-1.1,37.69-.42,9.52-.02,19.06-.24,28.59,0,.15,.22,.17,.23,.02,1.76-16.79,3.9-107.08,3.92-116.61Z" style="fill:#263238;"></path><path d="M163.68,304.65c-.13-4.15-.4-8.31-1.14-12.4-.73-4-2-7.87-3.49-11.64-3.12-7.88-6.82-15.56-10.35-23.26-3.57-7.8-7.22-15.57-10.99-23.28-2.12-4.33-4.25-8.66-6.4-12.98-2.17-4.37-4.51-8.66-6.79-12.98-.09-.17-.35-.05-.27,.13,3.62,7.78,7.2,15.58,10.82,23.37,3.62,7.78,7.18,15.59,10.74,23.4,3.5,7.68,7.01,15.37,10.31,23.14,1.58,3.72,3.06,7.5,4.03,11.44,1,4.03,1.42,8.18,1.66,12.32,.55,9.66,.82,19.35,1.76,28.98,.01,.12,.21,.11,.21-.01,.29-8.72,.15-17.5-.11-26.22Z" style="fill:#263238;"></path><path d="M158.18,421.35c-3.29-.43-28.34-1.29-49.3-.4-.14,0-.13,.2,0,.21,6.83,.61,45.43,.87,49.27,.43,.13-.01,.18-.22,.03-.24Z" style="fill:#263238;"></path><g><path d="M132.32,205.48c-6.05,1.41-11.98,3.69-17.68,6.13-.22,.1-.12,.44,.12,.36,5.93-1.86,11.97-3.6,17.8-5.78,.46-.17,.23-.82-.24-.71Z" style="fill:#263238;"></path><path d="M138.02,166.72c0-.2-.34-.28-.36-.06-.65,6.75-1.68,12.65-2.9,18.9-.56,2.9-4.58,18.84-9.53,17.14-.83-.28-1.18-1.17-1.18-2.46,0-1.56,.77-3.39,1.18-4.89,.91-3.33,1.71-6.68,2.35-10.07,1.2-6.33,1.88-12.72,1.76-19.16,0-.21-.31-.23-.33-.01-.9,8.84-2.03,17.65-4.25,26.27-1.07,4.14-3.84,10.26,.5,11.36,4.42,1.12,8.4-9.2,9.25-12.04,2.36-7.95,3.31-16.69,3.51-24.95Z" style="fill:#263238;"></path><path d="M125.32,203.14c-.57,1.04-1.06,2.13-1.49,3.24-.33,.86-.76,1.78-.76,2.71,0,.18,.24,.22,.34,.11,.67-.69,1.03-1.7,1.45-2.56,.49-1,1.01-1.99,1.47-3,.31-.67-.67-1.14-1.03-.5Z" style="fill:#263238;"></path></g><path d="M115.86,318.97c.29-8.04,1.18-16.47-1.45-24.23-1.31-3.85-3.29-7.41-5.16-11-1.96-3.78-3.88-7.58-5.77-11.39-7.55-15.26-14.67-30.76-21.03-46.56-3.06-7.61-5.8-15.42-6.89-23.58-1.15-8.54-.33-17.28,1.58-25.65,.48-2.09,.98-4.17,1.56-6.24,.04-.15-.18-.24-.23-.08-2.54,7.93-4.3,16.17-4.41,24.53-.11,8.05,1.65,15.87,4.26,23.44,2.71,7.89,6.11,15.57,9.45,23.2,3.45,7.88,7.02,15.69,10.74,23.44,3.7,7.71,7.65,15.29,11.55,22.9,1.89,3.68,3.61,7.45,4.34,11.55,.74,4.18,.62,8.43,.47,12.65-.67,17.78-2.2,76.97-2.42,94.7-.03,2.25-.06,4.5-.08,6.76,0,.2,.3,.23,.31,.02,1.13-17.7,2.57-76.74,3.21-94.47Z" style="fill:#263238;"></path><path d="M103.17,172.03c0-.13-.2-.1-.21,.01-.67,4.89-1.05,9.97-3.41,14.41-2.17,4.07-5.95,6.7-10.07,8.54-2.38,1.06-4.86,1.9-7.34,2.71-.18,.06-.14,.34,.06,.3,4.68-.97,9.43-2.06,13.5-4.69,4.35-2.81,6.59-7.31,7.31-12.35,.42-2.96,.38-5.95,.18-8.93Z" style="fill:#263238;"></path></g></g></g></g><g><g><path d="M75.89,164.09c.11,.23,74.48,20.49,75.32,19.95,.08-.05,3.16-1.7,3.82-7.46,.18-1.58-1.93-8.38-1.98-13.4-.18-17.62,.51-50.34-4.28-67.91-1.29-4.73-11.46-10.14-17.04-6.7-25.14,15.46-55.98,75.23-55.84,75.53Z" style="fill:#ebebeb;"></path><g><path d="M135.47,87.19s-2.77,37.52-3.76,41.87c-.69,3.05-9.12,33.67-13.45,55.8-1.86,9.47-.99,24.39-.99,24.39,0,0-25.9-8.41-33.83-13.81-4.6-3.13-14.84-16.61-14.84-16.61,0,0,16.39-36.43,25.68-50.08,9.3-13.65,27.09-37.3,35.41-40.75,3.79-1.57,5.77-.82,5.77-.82Z" style="fill:#89FF00;"></path><g style="opacity:.2;"><path d="M135.47,87.19s-2.77,37.52-3.76,41.87c-.69,3.05-9.12,33.67-13.45,55.8-1.86,9.47-.99,24.39-.99,24.39,0,0-25.9-8.41-33.83-13.81-4.6-3.13-14.84-16.61-14.84-16.61,0,0,16.39-36.43,25.68-50.08,9.3-13.65,27.09-37.3,35.41-40.75,3.79-1.57,5.77-.82,5.77-.82Z" style="fill:#030402;"></path></g></g></g><g><g><path d="M143.41,106.44c-4.2-1-7.74-12.04-7.94-17.97-.01-.41,1.56-2.35,4.03-6.26,1.49-2.38,3.09-5.06,4.38-7.61l14.06,11.95s-4.27,4.56-6.48,9.03c-.18,.38-.32,.74-.42,1.1-.02,.05-.03,.12-.06,.19-.68,2.15-3.5,10.54-7.56,9.58Z" style="fill:#f7a9a0;"></path><path d="M149.17,99.18c.29,.15,.57,.29,.84,.42,.45-1.15,.79-2.17,.96-2.74,.02-.07,.04-.14,.06-.19,.1-.36,.24-.73,.42-1.11,2.21-4.46,6.48-9.02,6.48-9.02l-14.06-11.96c-.27,.54-.55,1.07-.84,1.62-1.63,5.87-3.5,17.86,6.14,22.97Z" style="fill:#263238;"></path></g><g><g><path d="M148.97,56.3c-2.05,1.19-7.64-.32-9.38-3.58-2.4-4.5,3.75-10.67,8.57-7.56,4.82,3.12,2.39,10.22,.81,11.14Z" style="fill:#263238;"></path><path d="M141.72,45.63c-1.27,1.12-2.35,2.48-2.9,4-.26,.76-.35,1.56-.16,2.3,.18,.74,.6,1.41,1.18,1.96,.55,.56,1.26,1.01,1.97,1.42,.71,.42,1.47,.72,2.25,.97,1.57,.46,3.29,.54,4.92,.02-1.5,.83-3.37,1-5.08,.61-.86-.19-1.69-.5-2.47-.91-.76-.42-1.52-.88-2.17-1.52-.64-.63-1.17-1.45-1.36-2.38-.19-.92-.04-1.88,.33-2.7,.73-1.65,2.04-2.89,3.5-3.77Z" style="fill:#263238;"></path></g><path d="M146.49,58.83c-3.77,5.45-6.14,23.9-3.09,29.15,4.42,7.62,14.44,11.41,21.61,5.46,6.95-5.77,9.63-29.87,5.96-34.93-5.4-7.46-18.92-7.73-24.48,.32Z" style="fill:#f7a9a0;"></path><g><g><path d="M159.01,75.13s-.1,.05-.11,.1c-.13,1.25-.48,2.65-1.66,2.92-.04,0-.04,.07,0,.07,1.4,0,1.85-1.88,1.77-3.08Z" style="fill:#263238;"></path><path d="M158.08,73.68c-1.98-.42-2.67,3.57-.84,3.95,1.8,.38,2.5-3.6,.84-3.95Z" style="fill:#263238;"></path></g><g><path d="M166.21,76.32s.09,.08,.08,.13c-.25,1.23-.34,2.68,.71,3.28,.03,.02,.02,.08-.02,.07-1.33-.43-1.2-2.35-.76-3.47Z" style="fill:#263238;"></path><path d="M167.54,75.23c2.01,.19,1.48,4.2-.39,4.02-1.83-.18-1.3-4.19,.39-4.02Z" style="fill:#263238;"></path></g><path d="M156.82,71.59c.57-.04,1.08-.18,1.64-.28,.63-.11,1.14-.14,1.62-.6,.26-.25,.26-.77,.04-1.04-.51-.63-1.31-.69-2.07-.58-.83,.11-1.43,.41-2,1.02-.55,.59,.03,1.53,.77,1.48Z" style="fill:#263238;"></path><path d="M169.43,73.49c-.54-.19-1-.45-1.51-.69-.58-.27-1.07-.42-1.41-.99-.18-.31-.05-.81,.23-1.02,.65-.48,1.44-.33,2.15-.03,.77,.32,1.28,.77,1.67,1.5,.38,.71-.42,1.48-1.13,1.23Z" style="fill:#263238;"></path><path d="M156.26,86.25c.25,.34,.47,.79,.91,.91,.42,.11,.96,0,1.38-.08,.04,0,.07,.04,.04,.07-.4,.42-1.13,.6-1.68,.4-.54-.19-.73-.73-.78-1.26,0-.07,.09-.08,.13-.04Z" style="fill:#263238;"></path><path d="M158.2,82.78c.5,1.19,1.42,1.95,2.48,2.36,.47,.18,.99,.29,1.5,.33,.1,.02,.2,.02,.29,.02,.09,0,.18,0,.28,0,.15,0,.25-.1,.3-.23h0c0-.05,.01-.09,.01-.14h0l.02-.12c.19-.95,.35-2.41,.35-2.41,.32,.23,1.95,1.34,2.01,.84,.47-4.15,.99-8.77,.58-13,0-.14-.22-.14-.23,0-.61,3.97-.51,8.03-1.06,12.03-.53-.31-1.38-.87-1.88-.95-.14,.02-.26,2.83-.38,3.25,0,0,0,.02-.02,.04-1.63-.07-2.75-.76-4.12-2.11-.08-.09-.19-.02-.13,.09Z" style="fill:#263238;"></path><g><path d="M161.7,84.89s-1.04,.99-2.27,1.2c-.45,.08-.92,.06-1.38-.15-.94-.43-.81-1.34-.49-2.08,.26-.61,.65-1.11,.65-1.11,0,0,1.21,1.6,3.49,2.14Z" style="fill:#263238;"></path><path d="M159.43,86.09c-.45,.08-.92,.06-1.38-.15-.94-.43-.81-1.34-.49-2.08,1.04,.29,1.96,1.19,1.87,2.23Z" style="fill:#ff98b9;"></path></g></g><path d="M142.05,77.75c.44-.42,6.72-6.4,9.21-9.67,1.37-1.8,1.91-9.73,1.93-9.92-.17-1.6-.78-2.9-1.64-3.65-1.99,.98-3.75,2.42-5.06,4.32-2.34,3.38-4.14,11.78-4.44,18.91Z" style="fill:#263238; opacity:.3;"></path><g><path d="M145.68,74.23s-2.28-6.85-5.28-6.2c-2.99,.65-2.45,9.76,.23,11.78,2.69,2.02,4.61-.43,4.61-.43l.43-5.15Z" style="fill:#f7a9a0;"></path><path d="M140.62,70.64s-.08,.05-.04,.08c1.86,1.49,2.4,3.78,2.57,6.05-.4-.97-1.13-1.66-2.4-1.22-.07,.02-.04,.13,.02,.13,.92,.07,1.5,.41,1.88,1.28,.27,.62,.37,1.32,.5,1.98,.04,.22,.41,.22,.41-.02v-.05c.85-2.69-.12-7.09-2.94-8.22Z" style="fill:#263238;"></path></g><path d="M149.32,54.57c-2.5,1.48,3.74,5.88,4.79,6.3,1.05,.42,.05-2.2,.05-2.2,0,0,2.84,4.87,5.18,6.18,2.33,1.31,5.26,1.77,5.26,1.77l-2.77-4.1s5.6,6.21,9.42,7.53,5.67,4.21,5.67,4.21c0,0,2.25-8.82,.46-11.97-1.79-3.15-4.34-5.56-4.34-5.56l4.82,1.75s-3.43-3.49-6.15-4.65c-2.72-1.17-8.79-1.8-8.79-1.8l4.17-1.27s-3.45-1.61-6.33-1.33c-2.88,.27-7.6,1.85-7.6,1.85l3.17-1.8s-2.58-.46-4.04,.64-2.97,4.45-2.97,4.45Z" style="fill:#263238;"></path><path d="M148.42,93.48c.64,.91,2.9,2.83,5.72,3.65,2.82,.82,7.07-.31,8.21-1.11,1.14-.81,2.61-4.98,3.05-7.78,.44-2.81,.17-4.5-2.03-5.79-1.98-1.16-4-1.34-5.53-1.26-2.26,.11-3.66,.97-4.58,1.98-1.23,1.35-5.85,8.87-4.84,10.31Zm8.45-10.44c.5-.52,1.28-.96,2.53-1.01,.85-.04,1.97,.06,3.06,.66,1.22,.67,1.38,1.55,1.14,3-.23,1.44-1.13,4.02-1.77,4.43-.63,.41-2.87,.37-4.43-.06-1.57-.43-2.83-1.24-3.2-1.71-.56-.74,1.98-4.62,2.66-5.31Z" style="fill:#263238;"></path></g></g><g><g><path d="M123.39,100.9c-3,21.77-1.22,61.72,2.82,68.44,3.58,5.96,25.84,17.83,38.56,24.06,4.14,2.03,18.35-29.5,13.81-31.42-6.18-2.62-28.53-13.23-29.24-14.62-.78-1.52-6.77-30.74-12.3-47.28-5.01-14.99-12.53-7.42-13.66,.82Z" style="fill:#f7a9a0;"></path><g><path d="M183.31,161.87c9.92,2.09,12.15,4.15,21.46,1.46,6.11-1.76,9.86,1.38,5.08,5.96-7.81,7.49-21.18,7.48-25.81,6.15l-.74-13.57Z" style="fill:#f7a9a0;"></path><g><path d="M243.44,189.99c-4.57,11.98-18.63,20.04-25.11,21.08-6.48-1.06-20.53-9.15-25.07-21.14-4.54-11.99,.85-24.92,11.76-25.73,10.22-.75,13.35,7.15,13.35,7.15,0,0,2.81-7.89,13.37-7.12,10.91,.8,16.27,13.77,11.7,25.75Z" style="fill:#89FF00;"></path><path d="M245.06,182.08c0,.06,0,.12,0,.18,0,.09,0,.18-.01,.27-.11,1.89-.44,3.81-1,5.7-.04,.13-.08,.25-.12,.38h0c-.07,.24-.15,.46-.23,.69-.08,.23-.16,.45-.25,.68-4.57,11.98-18.63,20.04-25.11,21.08-6.48-1.06-20.53-9.15-25.07-21.14-.09-.23-.17-.45-.25-.68-.08-.23-.15-.46-.23-.69h0c-.66-2.12-1.03-4.27-1.12-6.37,0-.06,0-.12,0-.19,0-.08,0-.16,0-.25-.06-2.97,.44-5.81,1.45-8.31-1.25,4.23-1.12,9.27,.7,14.02,4.27,11.15,17.49,18.68,23.58,19.67,6.1-.97,19.33-8.47,23.63-19.62,3.38-8.76,1-18.56-5.18-22.34,6.02,2.48,9.49,9.29,9.23,16.89Z" style="opacity:.1;"></path><g style="opacity:.6;"><path d="M193.68,175.92c.09-1.86,.97-3.59,1.98-5.12,2.82-4.15,7.8-6.55,12.81-5.59,.44,.09,.91,.2,1.33,.34,.22,.07,.43,.14,.65,.22-.92,.01-1.8,0-2.68,.09-2.56,.2-5.1,.97-7.27,2.35-2.79,1.77-5.46,4.66-6.82,7.71h0Z" style="fill:#fff;"></path><path d="M219.39,171.54c.61-1.24,1.54-2.29,2.57-3.21,2.6-2.28,6.15-3.6,9.62-3.26,.69,.06,1.36,.2,2.02,.41-2.17,.34-4.17,.72-6.18,1.48-2.9,1.06-5.54,2.71-8.01,4.57h0Z" style="fill:#fff;"></path></g><g style="opacity:.1;"><path d="M242.27,178.92c.02,.28-.19,.52-.47,.54s-.52-.19-.54-.47c-.02-.28,.19-.52,.47-.54,.28-.02,.52,.19,.54,.47Z"></path><path d="M196.05,188.35c.02,.28-.19,.52-.47,.54-.28,.02-.52-.19-.54-.47-.02-.28,.19-.52,.47-.54,.28-.02,.52,.19,.54,.47Z"></path><path d="M211.16,206.11c.02,.28-.19,.52-.47,.54s-.52-.19-.54-.47c-.02-.28,.19-.52,.47-.54,.28-.02,.52,.19,.54,.47Z"></path><path d="M197.11,187.4c.02,.23-.16,.43-.38,.44s-.43-.16-.44-.38c-.02-.23,.16-.43,.38-.44s.43,.16,.44,.38Z"></path><path d="M241.59,180.32c0,.13-.09,.24-.22,.25-.13,0-.24-.09-.25-.22,0-.13,.09-.24,.22-.25,.13,0,.24,.09,.25,.22Z"></path><path d="M212.77,168.28c0,.13-.09,.24-.22,.25-.13,0-.24-.09-.25-.22,0-.13,.09-.24,.22-.25,.13,0,.24,.09,.25,.22Z"></path><path d="M235.82,194.31c0,.13-.09,.24-.22,.25-.13,0-.24-.09-.25-.22,0-.13,.09-.24,.22-.25,.13,0,.24,.09,.25,.22Z"></path><path d="M195.5,187.09c0,.13-.09,.24-.22,.25s-.24-.09-.25-.22c0-.13,.09-.24,.22-.25s.24,.09,.25,.22Z"></path></g></g><path d="M165.48,161.54s3.64-1.51,14.44-.33c7.47,.82,22.06,4.22,31.29,24.65,2.19,4.85,1.87,13.3-4.58,6.69-4.58-4.7-6.07-9.06-9.23-11.31,0,0-1.68,10.71-6.62,12.71-2.21,.9-8.29,3.2-13.28,4.32,0,0-.54-1.02-1.03-2.41,0,0-7.27,1.26-13.08-3.13l2.09-31.18Z" style="fill:#f7a9a0;"></path><g><path d="M185.47,162.94c2.67,2.9,8.22,9.13,10.98,15.8,3.07,7.42,7,22.53,1.5,24.74-4.03,1.62-6.04-4.02-6.04-4.02,0,0,.3,6.59-3.66,7.26-3.61,.61-4.9-3.85-4.9-3.85,0,0-.5,4.03-4.09,3.95-4.32-.1-2.56-8.53-6.84-12.41-.96-.87,13.05-31.48,13.05-31.48Z" style="fill:#f7a9a0;"></path><g><path d="M188.08,180.69c2.06,3.13,4.92,11.45,3.94,18.65-.02,.16-.16,.23-.17,.08-.61-8.16-2.75-15.6-3.84-18.71-.01-.04,.05-.06,.07-.03Z" style="fill:#263238;"></path><path d="M180.69,184.01c1.5,2.89,4.06,11.59,2.82,18.86-.03,.16-.17,.22-.17,.07-.29-8.55-1.81-15.74-2.72-18.9-.01-.04,.05-.06,.07-.02Z" style="fill:#263238;"></path></g></g></g></g><g><g><path d="M123.03,165.97c5.15,11.3,38.09,28.23,38.09,28.23l12.7-36.28s-23.45-9.98-24.05-11.3c-1.26-2.72-6.88-35.32-13.57-50.27-5.62-12.56-12.45-5.76-14.1,7.97-1.99,16.56-.88,57.65,.94,61.65Z" style="fill:#89FF00;"></path><path d="M123.03,165.97c5.15,11.3,38.09,28.23,38.09,28.23l12.7-36.28s-23.45-9.98-24.05-11.3c-1.26-2.72-6.88-35.32-13.57-50.27-5.62-12.56-12.45-5.76-14.1,7.97-1.99,16.56-.88,57.65,.94,61.65Z" style="fill:#030402; opacity:.2;"></path></g><path d="M165.1,156.84c-1.25,2.35-4.84,12.4-5.73,14.96-.88,2.55-3.99,12.86-4.76,15.43-.03,.12,.19,.16,.23,.04,.98-2.54,9.95-27.79,10.39-30.4,0-.06-.1-.1-.13-.04Z" style="fill:#263238;"></path><g><path d="M121.35,110.61c.3,16.75,0,35.05,1.35,51.68-.18,11.55,28.85,26.63,38.43,31.88l-.05,.02,.81-2.22-.75,2.24v.04l-.05-.02c-7.75-3.79-15.35-7.93-22.53-12.74-5.31-3.69-10.7-7.6-14.53-12.91-1.34-1.76-1.96-4.04-2.08-6.21-.42-4.32-.56-8.63-.68-12.94-.36-12.48-.18-26.27,.07-38.82h0Z" style="fill:#263238;"></path><path d="M119.91,113.29c.54,2.03,1.02,4.12,1.44,6.18-1.08-1.85-1.57-4.04-1.44-6.18h0Z" style="fill:#263238;"></path></g></g></g></g></g></g></svg>
