<svg xmlns="http://www.w3.org/2000/svg" viewBox="0 0 500 500"><g id="freepik--Character_2--inject-78"><g><g><g><g><path d="M408.03,465.35c2.72-.98,64.05-49.79,65.2-53.13,.46-1.26-46.8-61.17-46.8-61.17l-37.65,30.7,30.39,40.15s-15.12,29.18-16,32.99c-.87,3.79,2.14,11.46,4.85,10.46Z" style="fill:#ad6359;"></path><path d="M413.08,433.41c.12-.17,.17-.29,.15-.34,0,0-.06,.12-.15,.34Z" style="fill:#89FF00;"></path><path d="M408.03,465.34c2.71-.98,64.05-49.78,65.21-53.13,.41-1.12-4.75-8.64-11.72-18.07-9.52,11.17-46.62,54.15-50.74,51.32-1.62-1.11,.16-6.59,1.42-9.87-4.1,8.14-8.56,17.26-9.02,19.29-.86,3.78,2.14,11.45,4.85,10.45Z" style="fill:#89FF00;"></path><path d="M408.03,465.34c2.71-.98,64.05-49.78,65.21-53.13,.41-1.12-4.75-8.64-11.72-18.07-9.52,11.17-46.62,54.15-50.74,51.32-1.62-1.11,.16-6.59,1.42-9.87-4.1,8.14-8.56,17.26-9.02,19.29-.86,3.78,2.14,11.45,4.85,10.45Z" style="opacity:.3;"></path></g><g><path d="M445.94,375.93l-38.9,31.12s-64.37-75.95-66.73-87.36c-2.68-12.97-10.14-114.54-9.97-119.61,.21-6.14,6.97-33.12,6.97-33.12h48.22s6.75,132.83,8.15,136.95c1.51,4.43,52.25,72.01,52.25,72.01Z" style="fill:#263238;"></path><g><path d="M403.25,396.99c6.22-6,30.46-25.26,33.48-26.83,.07-.03,.16,.08,.11,.14-2.19,2.6-22.82,19.54-33.43,26.89-.11,.08-.26-.1-.16-.2Z" style="fill:#37474f;"></path><path d="M334.94,186.94c.64-.28,1.31-.27,1.96-.46,.68-.2,1.36-.44,2.03-.78,1.27-.64,2.55-1.51,3.72-2.63,1.2-1.16,2.07-2.77,2.86-4.59,.42-.97,2.39-6.14,2.41-6.18,.06-.12,.2-.05,.18,.08-.14,.71-1.49,5.18-1.89,6.3-.75,2.1-1.67,4-2.98,5.34-1.28,1.31-2.69,2.21-4.12,2.77-.73,.29-1.48,.51-2.21,.59-.66,.08-1.41,.19-2.02-.12-.11-.05-.04-.28,.06-.32Z" style="fill:#37474f;"></path><path d="M377.59,169.32l1.01,26.68,1.15,26.67,2.57,53.33c.48,8.89,.96,17.77,1.52,26.66,.06,1.1,.15,2.23,.26,3.38,0,.13,.01,.28,.11,.51,.07,.15,.14,.3,.21,.43,.14,.26,.3,.5,.45,.74,.31,.48,.63,.94,.95,1.4,1.29,1.83,2.63,3.61,3.98,5.38,2.69,3.55,5.46,7.03,8.23,10.52,5.55,6.96,11.14,13.89,16.76,20.78l17.01,20.58-16.59-20.92c-5.53-6.97-11.05-13.95-16.51-20.97-2.73-3.51-5.44-7.04-8.12-10.58-1.34-1.77-2.67-3.55-3.94-5.37-.32-.45-.63-.91-.92-1.37-.26-.47-.64-.92-.62-1.31-.09-1.07-.18-2.15-.23-3.27-.53-8.88-.96-17.77-1.41-26.65l-2.81-53.32-1.47-26.66-1.58-26.65Z" style="fill:#37474f;"></path></g><path d="M339.35,312.62c.35,3.27,.67,5.71,.96,7.08,1.33,6.4,22.22,33.17,40.27,55.41l12.38-77.87c-2.21-27.63-7.42-130.26-7.42-130.26h-24.03l-22.16,145.65Z" style="fill:#030402; opacity:.3;"></path></g></g><g><g><path d="M268.02,463.84c2.53,1.39,79.68,15.26,82.95,13.92,1.25-.49,15.07-75.53,15.07-75.53l-47.91-8.03-10.11,49.33s-31.9,7.9-35.35,9.75c-3.42,1.85-7.19,9.17-4.66,10.55Z" style="fill:#ad6359;"></path><path d="M295.34,446.55c.21-.02,.33-.06,.35-.12,0,0-.13,.04-.35,.12Z" style="fill:#89FF00;"></path><path d="M268.02,463.84c2.53,1.39,79.67,15.27,82.95,13.92,1.11-.43,3.35-9.27,5.84-20.73-14.67,.22-71.45,.72-72.05-4.25-.23-1.95,5.05-4.23,8.35-5.44-8.82,2.29-18.62,4.96-20.44,5.95-3.41,1.84-7.19,9.16-4.65,10.54Z" style="fill:#89FF00;"></path><path d="M268.02,463.84c2.53,1.39,79.67,15.27,82.95,13.92,1.11-.43,3.35-9.27,5.84-20.73-14.67,.22-71.45,.72-72.05-4.25-.23-1.95,5.05-4.23,8.35-5.44-8.82,2.29-18.62,4.96-20.44,5.95-3.41,1.84-7.19,9.16-4.65,10.54Z" style="opacity:.3;"></path></g><g><path d="M343.22,166.97s1.27,20.62,6.96,35.3c0,0,8.21,5.11,9.07,5.92l-48.85,220.09,50.09,9.73s19.68-106.62,21.36-113.93c2.69-11.74,23.96-111.52,24.9-117.19,1.97-11.86-8.98-39.93-8.98-39.93h-54.55Z" style="fill:#263238;"></path><g><path d="M315.51,417.28c13.78,2.06,40.12,7.65,43.36,8.99,.07,.03,.04,.17-.04,.17-3.51-.05-35.6-6.42-43.38-8.91-.13-.04-.09-.27,.05-.25Z" style="fill:#37474f;"></path><path d="M391.61,186.95c-1-.22-2.07-.15-3.09-.28-1.07-.14-2.14-.32-3.18-.6-1.97-.53-3.93-1.29-5.7-2.32-1.82-1.07-3.05-2.62-4.14-4.39-.58-.94-3.25-6.01-3.27-6.05-.08-.12-.32-.03-.29,.1,.15,.71,1.89,5.12,2.43,6.22,1.01,2.06,2.3,3.9,4.27,5.14,1.92,1.21,4.1,1.99,6.32,2.43,1.14,.23,2.31,.38,3.48,.4,1.05,.02,2.23,.07,3.23-.3,.18-.07,.08-.29-.06-.32Z" style="fill:#37474f;"></path><g><path d="M348.99,201.72c4.57,1.53,8.98,3.71,13.21,6.01,.17,.09,.06,.35-.12,.27-4.45-1.86-8.98-3.64-13.32-5.75-.34-.17-.12-.65,.23-.53Z" style="fill:#37474f;"></path><path d="M347.31,171.33c.01-.15,.28-.19,.28-.02,.01,5.26,.39,9.88,.88,14.8,.23,2.28,2.18,14.87,6.12,13.92,.66-.16,.99-.82,1.09-1.81,.11-1.2-.35-2.67-.56-3.86-.46-2.64-.84-5.28-1.09-7.95-.47-4.97-.53-9.95,.03-14.92,.02-.16,.25-.15,.26,.01,.06,6.89,.3,13.77,1.39,20.58,.52,3.28,2.22,8.2-1.2,8.73-3.49,.55-5.82-7.71-6.27-9.96-1.25-6.3-1.36-13.12-.92-19.51Z" style="fill:#37474f;"></path><path d="M354.49,200.36c.37,.84,.66,1.72,.91,2.61,.2,.69,.46,1.43,.39,2.15-.01,.14-.2,.15-.27,.06-.47-.58-.67-1.39-.94-2.08-.31-.81-.63-1.61-.92-2.42-.19-.54,.6-.83,.83-.31Z" style="fill:#37474f;"></path></g><path d="M393.67,166.97c1.37,5.23,2.66,10.47,3.84,15.74,1.17,5.27,2.29,10.56,2.95,15.91l.19,2c.06,.67,.04,1.33,.06,1.99l-.59,3.96-1.51,7.96-3.22,15.88-13.24,63.46-13.25,63.46-6.58,31.74-6.49,31.76,7.04-31.64,6.89-31.67,13.51-63.41c4.38-21.16,8.8-42.32,12.98-63.52l3.07-15.92,1.44-7.98,.56-4.06c0-1.38-.13-2.73-.3-4.08-.76-5.37-1.97-10.65-3.23-15.9-1.27-5.25-2.65-10.48-4.11-15.68Z" style="fill:#37474f;"></path></g></g></g></g><g><g><path d="M397.77,166.97h-60.45l6.43-23.48s-5.19-3.65-2.6-11c2.02-5.75,11.43-16.98,16.36-22.33,11.79-12.81,19.76-5.47,22.53-1.66,5.29,7.27,9.07,36.78,9.07,36.78,7.16,12.18,8.66,21.7,8.66,21.7Z" style="fill:#455a64;"></path><g><path d="M360.28,142.99c-2.6-.32-5.23-.55-7.86-.45-1.31,.05-2.61,.17-3.92,.31-.65,.07-1.3,.12-1.95,.17-.67,.05-1.38,.07-2.04-.06-.06-.01-.08,.08-.02,.1,.63,.17,1.23,.33,1.88,.41,.62,.07,1.25,.08,1.87,.06,1.33-.04,2.66-.14,3.99-.19,2.68-.11,5.36-.21,8.03-.11,.12,0,.15-.22,.02-.24Z" style="fill:#263238;"></path><path d="M365.96,146.95c-2.02-.73-4.12-1.36-6.21-1.84-1.06-.24-2.12-.41-3.19-.55-.51-.07-1.03-.12-1.54-.17-.57-.05-1.14-.03-1.71-.09-.06,0-.08,.09-.02,.1,.53,.08,1.05,.25,1.57,.36,.53,.11,1.05,.22,1.58,.33,1.06,.22,2.11,.46,3.16,.67,2.12,.42,4.22,.87,6.32,1.37,.11,.03,.15-.15,.04-.19Z" style="fill:#263238;"></path></g></g><g><path d="M359.42,115.83s14.96-5.87,21.17-3.7l3.85,6.38s1.57,1.12,2.46,.18c2.19-2.32,4.52-8.87,.16-14.94-3.99-5.56-14.95-8.09-22.67-8.43-7.41-.33-12.43,2.53-11.72,7.65,.71,5.12,6.76,12.87,6.76,12.87Z" style="fill:#455a64;"></path><path d="M359.39,113.51s-3.78-7.47-3.55-11.05c.23-3.58,7.87-4.68,12.55-4.59,7.25,.15,11.65,1.98,14.27,6.69,2.62,4.71-23.28,8.94-23.28,8.94Z" style="opacity:.1;"></path><g><path d="M341.24,88.11c.42,1.66-1.44,4.46,.44,7.38,3.97,6.19,8.52,2.5,11.27,2.84,2.11,.27,2.3,5.48,7.58,6.6,5.88,1.24,8.03-1.63,10.66-1.78,2.31-.13,4.26,2.78,9.4,2.06,5.07-.72,5.61-3.48,7.56-4.13,1.95-.65,5.06,1.22,8.61-1.66,3.16-2.57,1.51-6.7,1.79-7.44,.36-.99,3.12-2.14,3.56-6.12,.37-3.39-1.82-5.02-2.76-6.38,.94-2.61,1.13-6.22-.44-8.78-2.3-3.75-3.96-3.32-4.76-4.27-.6-.7-.42-4.86-3.09-7.77-1.72-1.87-4.65-2.49-5.15-2.92-.6-.51-.26-2.43-2.33-3.69-1.19-.73-2.82-.71-4.28-.48-.48-1.15-1.54-1.79-2.75-1.99-1.52-.26-2.97,.74-3.76,.63-.74-.1-1.1-1.32-3.28-1.28-3.08,.05-4.17,2.31-4.92,2.58-.77,.28-3.55,.34-4.93,1.09-1.96,1.06-2.43,3.08-2.92,3.45-1.05,.79-2.88,.05-5.87,2.22-2.03,1.48-2.13,4.79-2.57,5.25-.36,.38-3.61,1.33-5.16,3.25-2.27,2.84-.43,5.97-1.01,7.3-.84,1.93-3.21,2.49-3.79,6.76-.62,4.53,2.5,5.64,2.9,7.27Z" style="fill:#263238;"></path><g><path d="M373.01,106.88c-.52,1.11-7.73,7.47-13,6.06-1.72-.46,.38-9.94,.38-9.94v-.74l-.08-10.29,13.13-4.9,1.88-.62s-.17,2.82-.41,6.32c-.01,.16-.02,.33-.03,.5,0,.2-.01,.39-.03,.57-.03,.52-.06,1.06-.1,1.59-.03,.41-.06,.8-.11,1.22-.04,.43-.08,.84-.12,1.27-.46,4.2-1.29,8.48-1.5,8.95Z" style="fill:#ad6359;"></path><path d="M374.91,92.78c-4.5,7.2-11.43,9.04-14.53,9.49l-.07-10.29,13.13-4.9,1.88-.62s-.17,2.82-.41,6.32Z" style="fill:#263238;"></path></g><g><path d="M348.61,74.89c-4.77,17.42,5.13,22.25,8.88,23.27,3.41,.93,15.14,3.66,21.69-13.17,6.55-16.84-.05-24.56-7.74-27.1-7.69-2.54-18.07-.42-22.84,17Z" style="fill:#ad6359;"></path><g><path d="M353.37,71.67c.42,.06,.82,.05,1.25,.07,.48,.02,.86,.09,1.28-.17,.23-.14,.32-.52,.21-.76-.26-.55-.84-.72-1.42-.77-.62-.06-1.12,.06-1.64,.41-.5,.34-.24,1.13,.32,1.21Z" style="fill:#263238;"></path><path d="M364.82,74.94c-.4-.16-.73-.37-1.11-.57-.42-.22-.78-.36-1.02-.8-.13-.24,0-.61,.21-.76,.51-.34,1.09-.19,1.61,.06,.56,.27,.93,.62,1.2,1.19,.26,.55-.37,1.09-.89,.88Z" style="fill:#263238;"></path><g><g><path d="M361.29,78.7s.08,.08,.06,.13c-.39,1.17-.64,2.57,.31,3.28,.03,.02,0,.08-.03,.06-1.25-.57-.89-2.43-.34-3.47Z" style="fill:#263238;"></path><path d="M362.71,77.79c1.94,.42,.95,4.27-.85,3.88-1.77-.39-.78-4.23,.85-3.88Z" style="fill:#263238;"></path></g><path d="M363.42,78.18c.28,.3,.51,.77,.9,.92,.46,.17,.91-.14,1.32-.45,.04-.03,.07,.01,.05,.06-.18,.74-.66,1.42-1.48,1.33-.75-.09-1.1-.87-1.09-1.66,0-.15,.17-.32,.28-.2Z" style="fill:#263238;"></path></g><g><g><path d="M354.47,76.64s-.11,.03-.12,.08c-.26,1.2-.76,2.54-1.94,2.66-.04,0-.05,.06,0,.07,1.36,.14,2.01-1.63,2.06-2.81Z" style="fill:#263238;"></path><path d="M353.72,75.13c-1.88-.62-2.99,3.19-1.25,3.77,1.72,.57,2.83-3.24,1.25-3.77Z" style="fill:#263238;"></path></g><path d="M352.85,75.15c-.36,.11-.76,.39-1.13,.31-.42-.09-.61-.6-.76-1.07-.02-.05-.06-.03-.07,.02-.23,.72-.21,1.55,.45,1.9,.6,.31,1.25-.18,1.64-.85,.07-.12,.03-.36-.12-.31Z" style="fill:#263238;"></path></g><path d="M358.43,88.14c-.35,.22-.72,.55-1.16,.49-.43-.05-.88-.35-1.23-.57-.03-.02-.08,0-.07,.05,.22,.53,.81,.96,1.39,.97,.56,.02,.93-.4,1.17-.87,.03-.07-.05-.11-.1-.08Z" style="fill:#263238;"></path><path d="M354.63,82.51s-.72,1.71-.95,2.54c-.02,.08,.17,.17,.45,.26,.01,0,.02,.02,.03,0,1.41,.63,3.04,.52,4.26-.44,.08-.07,0-.18-.09-.15-1.32,.51-2.6,.39-3.91,.06,0-.25,1.34-2.88,1.21-2.93-.45-.16-1.43-.1-2.02-.08,1.41-3.6,3.38-6.94,4.72-10.55,.05-.13-.13-.22-.2-.11-2.31,3.36-4.02,7.47-5.57,11.15-.2,.46,1.69,.29,2.07,.24Z" style="fill:#263238;"></path><g><path d="M354.94,85.19s.45,1.15,1.34,1.76c.33,.23,.7,.38,1.13,.38,.89,0,1.12-.75,1.14-1.45,.02-.57-.1-1.1-.1-1.1,0,0-1.52,.81-3.51,.41Z" style="fill:#263238;"></path><path d="M356.27,86.95c.33,.23,.7,.38,1.13,.38,.89,0,1.12-.75,1.14-1.45-.92-.15-1.97,.22-2.28,1.07Z" style="fill:#ff9cbd;"></path></g></g><path d="M378.29,87.96c-3.02-.76-1.62-7.17-1.62-7.17,0,0-5.99-2-5.07-11.27,0,0-1.22,4.05,.25,8.01,0,0-10.18-4.67-11.65-15.01,0,0,.26,5.1,1.38,7.26,0,0-4.01-2.73-4.96-7.05,0,0-3.57,4.48-5.46,5.41,0,0,6.66-18.33,23.11-10.6,0,0,10.48,4.32,11.47,14.1,.99,9.78-7.45,16.33-7.45,16.33Z" style="fill:#263238;"></path><path d="M376.53,91.06s9.44-10.3,9.31-19.92c-.13-9.61-11.39-16.53-19.2-16.4-5.51,.09-9.36,4.39-9.36,4.39,0,0,4.74-1.79,13.67,3.52,5.92,3.52,8.73,10.33,8.62,14.81-.18,6.85-3.03,13.6-3.03,13.6Z" style="fill:#89FF00;"></path><g><path d="M376.04,85.57s4.89-4.84,7.16-2.99c2.26,1.84-2.12,9.35-5.28,9.91-3.16,.56-3.73-2.35-3.73-2.35l1.85-4.56Z" style="fill:#ad6359;"></path><path d="M381.89,84.69s.04,.07,0,.08c-2.22,.46-3.67,2.18-4.79,4.03,.76-.65,1.67-.92,2.56,0,.05,.05-.02,.12-.08,.1-.82-.34-1.45-.3-2.15,.27-.49,.41-.88,.96-1.27,1.47-.13,.17-.45,0-.34-.19l.03-.04c.43-2.65,3.16-5.97,6.04-5.72Z" style="fill:#263238;"></path></g></g></g><path d="M359.39,113.51s14.19-10.14,24.28-8.42l-3.08,7.03s-8.12-2.37-21.17,3.7l-.03-2.31Z" style="fill:#455a64;"></path><g><path d="M383.16,113.07c-1.71-.77-3.59-.93-5.42-.92-7.14-.5-15.62,2.87-15.62,2.87l-2.51,1.19-.28,.13-.21-.2c-2.71-2.78-4.7-7.91-5.06-8.91,1.69,3.33,4.88,7.58,5.65,8.29l-.49-.07,2.53-1.24c.86-.38,9.81-2.96,16-2.58,.47,.01,.94,.08,1.41,.12,.47,.08,.93,.15,1.39,.27,.91,.22,1.82,.53,2.61,1.04Z" style="fill:#263238;"></path><path d="M384.44,118.51c-.79-.97-1.47-2.01-2.12-3.07-.63-1.07-1.24-2.15-1.73-3.31,.8,.97,1.47,2.01,2.12,3.07,.63,1.07,1.24,2.15,1.73,3.31Z" style="fill:#263238;"></path></g><path d="M362.47,112.33s-.04,4.02-1.16,9.59c-.45,2.2-3.06,9.89-5.43,9.06-2.38-.83,2.74-5.02,4.37-9.02,1.65-4.06,1.2-7.28,1.61-9.8l.62,.18Z" style="fill:#a6a6a6;"></path><path d="M356.46,110.81s-2.31,2.85-4.76,7.42c-.97,1.81-3.61,8.74-1.45,9.53,2.16,.8,1-5.13,2.18-8.89,1.2-3.82,3.4-5.82,4.57-7.84l-.54-.24Z" style="fill:#a6a6a6;"></path></g><g><path d="M350.33,147.24c-12.4,16.52-37.77,22.74-48.28,21.47-9.57-4.53-27.72-23.31-29.41-43.9-1.7-20.59,12.41-38.22,29.66-34.61,16.16,3.39,17.5,17.01,17.5,17.01,0,0,7.87-10.97,23.88-5.07,16.54,6.09,19.06,28.58,6.66,45.09Z" style="fill:#89FF00;"></path><path d="M356.36,135.71c-.03,.09-.06,.19-.09,.28-.05,.14-.09,.28-.14,.41-1.01,2.88-2.37,5.7-4.09,8.39-.12,.18-.23,.36-.35,.54h0c-.22,.33-.43,.65-.66,.97-.22,.31-.45,.63-.69,.94-12.4,16.52-37.77,22.74-48.28,21.47-9.57-4.53-27.72-23.31-29.41-43.9-.03-.39-.06-.77-.08-1.16-.02-.39-.04-.78-.05-1.16,0,0,0,0,0,0-.08-3.57,.3-7.06,1.1-10.35,.02-.1,.05-.2,.07-.29,.03-.13,.07-.26,.1-.39,1.22-4.63,3.27-8.8,5.94-12.23-3.81,5.99-5.86,13.87-5.15,22.03,1.65,19.18,18.76,36.72,27.77,40.96,9.88,1.21,33.71-4.51,45.33-19.86,9.13-12.07,9.81-28.29,1.93-36.91,8.23,6.52,10.56,18.61,6.77,30.26Z" style="opacity:.1;"></path><g style="opacity:.6;"><path d="M279.53,103.28c.97-2.83,3.1-5.13,5.35-7.04,6.22-5.17,15-6.68,22.33-2.96,.64,.34,1.32,.71,1.92,1.12,.3,.21,.61,.41,.9,.63-1.42-.39-2.79-.81-4.2-1.06-4.06-.84-8.33-.77-12.31,.41-5.1,1.5-10.54,4.79-14,8.91h0Z" style="fill:#fff;"></path><path d="M321.28,107.96c1.49-1.65,3.41-2.86,5.4-3.82,5.04-2.37,11.12-2.84,16.34-.76,1.04,.4,2.02,.92,2.94,1.53-3.51-.45-6.78-.74-10.24-.47-4.97,.36-9.79,1.73-14.45,3.52h0Z" style="fill:#fff;"></path></g><g style="opacity:.1;"><path d="M353.44,129.57c-.09,.44-.53,.72-.97,.63-.44-.1-.72-.53-.63-.97s.53-.72,.97-.63c.44,.1,.72,.53,.63,.97Z"></path><path d="M277.65,123.59c-.09,.44-.53,.72-.97,.63-.44-.1-.72-.53-.63-.97,.09-.44,.53-.72,.97-.63,.44,.1,.72,.53,.63,.97Z"></path><path d="M293.15,157.82c-.1,.44-.53,.72-.97,.63s-.72-.53-.63-.97,.53-.72,.97-.63,.72,.53,.63,.97Z"></path><path d="M279.73,122.59c-.08,.36-.43,.59-.79,.51-.36-.08-.59-.43-.51-.79,.08-.36,.43-.59,.79-.51,.36,.08,.59,.43,.51,.79Z"></path><path d="M351.76,131.44c-.04,.21-.25,.34-.45,.29-.21-.04-.34-.25-.29-.45,.04-.21,.25-.34,.45-.29,.21,.04,.34,.25,.29,.45Z"></path><path d="M312.49,99.95c-.04,.21-.25,.34-.45,.29-.21-.04-.34-.25-.29-.45,.04-.21,.25-.34,.45-.29,.21,.04,.34,.25,.29,.45Z"></path><path d="M336.61,150.53c-.04,.21-.25,.34-.45,.29-.21-.04-.34-.25-.29-.45,.04-.21,.25-.34,.45-.29,.21,.04,.34,.25,.29,.45Z"></path><path d="M277.36,121.4c-.04,.21-.25,.34-.45,.29-.21-.04-.34-.25-.29-.45,.04-.21,.25-.34,.45-.29,.21,.04,.34,.25,.29,.45Z"></path></g></g><g><g><path d="M376.57,123.69c-11.43,22.23-23.29,38.62-28.86,41.31-6.45,3.12-29.62,3.14-47.58,1.38-3.67-.36,.94-29.51,4.88-29.28,10.33,.61,31.08,4.65,34.61,3.19,3.26-1.35,16.81-15.44,27.34-22.86,10.12-7.13,14.93-4.09,9.61,6.25Z" style="fill:#ad6359;"></path><g><path d="M273.86,129.44c-1.86,2.29-.17,4.84-.17,4.84,0,0-2.25,.7-3.33,2.69-1.23,2.28,1.8,5.22,1.8,5.22,0,0-2.13,1.18-3.06,3.4-.96,2.3,1.68,5.7,1.68,5.7,0,0-1.38,2.19-.8,4.68,.98,4.26,7.29,6.44,11.29,7.86,4,1.43,16.95,2.29,19.36,2.59l14.17-21.52s-9.27-13.49-26.14-17.13c-4.15-.9-12.73-.92-14.81,1.66Z" style="fill:#ad6359;"></path><g><path d="M274.01,133.93c4.64-.16,9.08,1.06,13.57,2.03,.1,.02,.06,.18-.04,.15-4.46-1.01-9.06-1.13-13.56-1.97-.12-.02-.11-.22,.02-.22Z" style="fill:#263238;"></path><path d="M272.36,141.89c1.05,0,2.1,.34,3.11,.61,1.08,.29,2.16,.6,3.23,.93,2.15,.65,4.28,1.35,6.4,2.12,.09,.03,.07,.19-.04,.16-2.14-.65-4.3-1.26-6.46-1.82-1.09-.28-2.17-.55-3.26-.81-1.01-.24-2.1-.42-3.04-.88-.14-.07-.09-.3,.07-.3Z" style="fill:#263238;"></path><path d="M270.87,151.32c.91-.04,1.91,.42,2.77,.7,.97,.32,1.95,.63,2.92,.94,1.95,.61,3.91,1.23,5.88,1.77,.1,.03,.06,.18-.03,.16-2.01-.54-4.02-1.06-6.02-1.62-.98-.28-1.96-.56-2.95-.84-.83-.24-1.9-.45-2.6-1-.04-.03-.01-.09,.03-.1Z" style="fill:#263238;"></path></g></g></g><g><path d="M309.87,137.53l-7.49,30.5s3.98,5.81,11.09,6.14c7.1,.33,26.54-2.57,36.43-9.28,8.15-5.53,23.3-30.83,28.1-41.16,4.8-10.32,1.3-14.71-9.88-8.14-11.18,6.57-27.75,22.09-29.97,23.12-2.21,1.03-15.21-2.7-19.1-2.83-3.89-.13-9.17,1.63-9.17,1.63Z" style="fill:#455a64;"></path><path d="M339.5,137.8c5.52-5.42,11.47-10.32,17.87-14.67-5.51,5.42-11.48,10.32-17.87,14.67h0Z" style="fill:#263238;"></path><g><path d="M341.61,169.01c3.73-1.6,7.35-3.61,10.41-6.29,2.89-2.82,5.37-6.11,7.78-9.39,3.64-4.93,7.05-10.05,10.31-15.25,1.11-1.72,2.14-3.49,3.21-5.25-3.51,7.44-7.92,14.41-12.71,21.09-2.51,3.27-4.97,6.6-8.08,9.37-3.2,2.58-7,4.49-10.92,5.72h0Z" style="fill:#263238;"></path><path d="M369.69,139.28c1.31-1.17,2.44-2.32,3.76-3.48-.75,1.56-2.1,2.91-3.76,3.48h0Z" style="fill:#263238;"></path></g><path d="M317.95,140.93c-.94,2.17-3.42,11.35-4.02,13.68-.61,2.33-2.65,11.7-3.15,14.04-.02,.11,.17,.13,.2,.02,.69-2.32,6.88-25.36,7.09-27.71,0-.05-.09-.09-.12-.03Z" style="fill:#263238;"></path></g></g></g></g></g></svg>
